<?xml version="1.0" standalone="no"?>
<!DOCTYPE svg PUBLIC "-//W3C//DTD SVG 20010904//EN"
 "http://www.w3.org/TR/2001/REC-SVG-20010904/DTD/svg10.dtd">
<svg version="1.0" xmlns="http://www.w3.org/2000/svg"
 width="1280.000000pt" height="640.000000pt" viewBox="0 0 1280.000000 640.000000"
 preserveAspectRatio="xMidYMid meet">

<g transform="translate(0.000000,640.000000) scale(0.100000,-0.100000)"
fill="#000000" stroke="none">
<path d="M1973 4903 c-175 -102 -378 -219 -450 -261 l-133 -77 3 -534 2 -534
145 -84 c80 -47 281 -164 447 -260 l302 -175 123 71 c68 39 272 157 453 263
l330 193 3 526 2 526 -455 265 -454 266 -318 -185z m638 -214 c170 -100 309
-183 307 -184 -2 -2 -70 -42 -153 -90 -82 -49 -213 -125 -290 -170 -77 -45
-150 -87 -162 -94 -20 -10 -54 7 -333 170 -170 100 -310 184 -310 188 0 8 602
360 618 360 7 1 152 -81 323 -180z m-721 -528 l305 -178 3 -367 c1 -201 -1
-366 -6 -366 -4 0 -145 80 -312 178 l-305 177 -3 368 c-1 202 1 367 6 367 4 0
145 -80 312 -179z m1118 -188 l-3 -367 -305 -178 c-168 -98 -308 -178 -312
-178 -5 0 -8 164 -8 364 l0 364 308 180 c169 99 310 181 315 181 4 1 6 -164 5
-366z"/>
<path d="M4950 3144 l0 -965 533 4 c491 3 539 5 622 24 252 57 391 171 441
358 21 79 18 234 -7 307 -37 110 -107 189 -213 241 -57 28 -160 56 -211 58
-25 0 -27 2 -10 8 11 5 43 14 70 20 129 31 216 95 267 199 28 57 33 78 36 162
2 53 -1 121 -7 151 -46 219 -228 348 -551 389 -41 5 -276 10 -522 10 l-448 0
0 -966z m885 581 c112 -29 160 -78 172 -174 7 -61 -21 -128 -70 -165 -63 -48
-115 -58 -324 -63 l-193 -5 0 211 0 211 178 0 c128 0 195 -4 237 -15z m70
-740 c119 -30 185 -106 185 -210 -1 -95 -48 -158 -150 -201 -38 -15 -80 -19
-282 -22 l-238 -4 0 226 0 226 213 0 c158 0 228 -4 272 -15z"/>
<path d="M10160 3303 c0 -856 0 -856 48 -948 28 -55 77 -99 143 -129 81 -37
142 -46 325 -46 l164 0 0 170 0 170 -67 0 c-82 0 -112 14 -135 60 -17 32 -18
91 -18 783 l0 747 -230 0 -230 0 0 -807z"/>
<path d="M11140 3815 l0 -175 -120 0 -120 0 0 -165 0 -165 120 0 120 0 0 -362
c0 -200 5 -391 10 -426 32 -195 134 -301 320 -331 36 -6 167 -11 293 -11 l227
0 0 170 0 170 -130 0 c-162 0 -203 13 -231 74 -17 37 -19 71 -19 379 l0 337
190 0 190 0 0 165 0 165 -190 0 -190 0 -2 173 -3 172 -232 3 -233 2 0 -175z"/>
<path d="M7390 3670 c-232 -18 -413 -106 -509 -250 -38 -58 -101 -224 -88
-236 7 -7 448 -24 459 -18 4 3 8 12 8 20 0 23 35 86 62 111 62 58 198 72 279
30 52 -28 95 -102 105 -182 l6 -51 -238 -48 c-284 -57 -381 -84 -476 -132
-136 -68 -208 -163 -227 -296 -19 -135 15 -246 99 -328 94 -92 238 -140 416
-140 223 0 391 71 475 201 l33 50 15 -48 c22 -70 99 -143 176 -168 62 -20 220
-27 278 -12 l27 7 0 155 0 155 -40 0 c-32 0 -43 5 -57 27 -16 24 -19 64 -23
373 -6 341 -6 346 -32 418 -63 174 -168 271 -360 330 -37 12 -102 24 -145 27
-43 3 -94 7 -113 9 -19 1 -78 0 -130 -4z m320 -898 c0 -69 -26 -159 -60 -205
-40 -55 -89 -85 -166 -104 -122 -30 -215 7 -234 93 -17 75 12 130 90 170 29
14 315 89 358 93 8 1 12 -15 12 -47z"/>
<path d="M8480 3112 c0 -490 1 -534 19 -605 61 -238 218 -357 468 -357 183 0
324 75 404 215 l29 50 0 -117 0 -118 215 0 215 0 0 730 0 730 -234 0 -235 0
-3 -467 c-4 -525 -5 -530 -77 -602 -89 -89 -243 -76 -298 24 -37 68 -43 148
-43 608 l0 437 -230 0 -230 0 0 -528z"/>
<path d="M887 3157 l-447 -261 2 -530 3 -530 450 -262 450 -262 40 24 c22 12
225 131 450 262 l410 240 3 529 2 529 -450 262 c-247 144 -453 262 -457 261
-4 0 -209 -118 -456 -262z m769 -127 c170 -99 310 -183 311 -188 2 -7 -588
-354 -614 -360 -12 -3 -174 88 -516 291 -65 39 -114 73 -110 77 4 4 112 67
238 140 127 73 262 152 300 176 39 23 73 43 76 43 4 1 146 -80 315 -179z
m-747 -512 c152 -88 293 -172 314 -185 l37 -23 -1 -213 c-1 -116 -4 -280 -8
-363 l-6 -151 -300 174 c-165 96 -303 177 -306 181 -9 10 -22 742 -13 742 3 0
131 -73 283 -162z m1161 -202 c0 -279 -3 -366 -12 -374 -7 -5 -134 -80 -283
-167 -148 -86 -285 -166 -302 -177 l-33 -20 0 369 0 369 158 92 c86 50 225
132 307 181 83 49 153 89 158 90 4 1 7 -163 7 -363z"/>
<path d="M2930 3248 c-162 -94 -362 -211 -445 -259 l-150 -87 -3 -534 -2 -533
137 -80 c76 -43 279 -161 451 -261 l313 -182 454 266 455 265 0 522 c0 406 -3
525 -12 533 -18 14 -891 522 -897 522 -3 0 -139 -77 -301 -172z m616 -220
c172 -101 310 -186 306 -190 -14 -13 -595 -351 -611 -355 -19 -5 -625 347
-623 362 1 8 596 363 611 365 2 0 145 -82 317 -182z m-713 -532 l307 -180 0
-369 c0 -202 -3 -366 -7 -364 -5 2 -146 84 -315 182 l-308 177 0 370 c0 203 4
368 8 366 5 -1 147 -84 315 -182z m1125 -405 l-3 -144 -315 -184 -315 -183 -3
362 c-1 227 1 365 8 372 5 5 146 89 312 187 l303 177 8 -221 c4 -122 6 -287 5
-366z"/>
</g>
</svg>
