<?xml version="1.0" encoding="UTF-8"?>
<!DOCTYPE svg PUBLIC "-//W3C//DTD SVG 1.1//EN" "http://www.w3.org/Graphics/SVG/1.1/DTD/svg11.dtd">
<svg xmlns="http://www.w3.org/2000/svg" version="1.1" width="5334px" height="2667px" style="shape-rendering:geometricPrecision; text-rendering:geometricPrecision; image-rendering:optimizeQuality; fill-rule:evenodd; clip-rule:evenodd" xmlns:xlink="http://www.w3.org/1999/xlink">
<g><path style="opacity:0.986" fill="#fefffe" d="M 953.5,545.5 C 1079.61,619.396 1205.95,693.062 1332.5,766.5C 1333.09,913.167 1332.59,1059.83 1331,1206.5C 1205.79,1280.54 1079.96,1353.54 953.5,1425.5C 829.211,1354.35 705.211,1282.69 581.5,1210.5C 579.893,1084.17 578.893,957.84 578.5,831.5C 578.502,808.595 578.836,785.762 579.5,763C 704.393,690.726 829.06,618.226 953.5,545.5 Z M 950.5,638.5 C 957.216,639.852 963.549,642.352 969.5,646C 1052.2,692.071 1133.87,739.737 1214.5,789C 1130.02,839.657 1044.86,889.157 959,937.5C 954.363,936.399 949.863,934.899 945.5,933C 929.008,924.588 912.675,915.921 896.5,907C 829.006,868.425 762.339,828.592 696.5,787.5C 779.915,735.789 864.581,686.123 950.5,638.5 Z M 657.5,859.5 C 678.766,870.467 699.766,881.967 720.5,894C 784.336,931.752 848.336,969.252 912.5,1006.5C 914.053,1074.82 915.053,1143.16 915.5,1211.5C 914.759,1238.83 914.259,1266.16 914,1293.5C 913.912,1299.61 913.245,1305.61 912,1311.5C 827.037,1262.7 742.204,1213.7 657.5,1164.5C 655.989,1093.99 654.989,1023.49 654.5,953C 654.982,921.774 655.982,890.607 657.5,859.5 Z M 1248.5,859.5 C 1249.75,859.577 1250.58,860.244 1251,861.5C 1252.76,962.162 1252.76,1062.83 1251,1163.5C 1166.16,1213.59 1080.82,1262.92 995,1311.5C 993.9,1301.2 993.233,1290.87 993,1280.5C 991.539,1190.17 991.206,1099.84 992,1009.5C 1077.32,959.095 1162.82,909.095 1248.5,859.5 Z"/></g>
<g><path style="opacity:0.994" fill="#fefffe" d="M 2061.5,953.5 C 2158.17,953.333 2254.83,953.5 2351.5,954C 2391.21,954.173 2430.88,955.506 2470.5,958C 2520.02,963.288 2566.69,977.621 2610.5,1001C 2672.8,1039.09 2702.47,1094.92 2699.5,1168.5C 2703.39,1223.2 2684.39,1268.04 2642.5,1303C 2629.22,1312.48 2614.88,1320.14 2599.5,1326C 2579.4,1331.69 2559.4,1337.69 2539.5,1344C 2583.92,1347.14 2624.92,1360.47 2662.5,1384C 2703.89,1414.27 2727.06,1455.1 2732,1506.5C 2733.98,1528.83 2733.98,1551.17 2732,1573.5C 2724.2,1633.3 2694.7,1678.8 2643.5,1710C 2589.67,1739.54 2532,1754.54 2470.5,1755C 2334.18,1757.07 2197.84,1758.24 2061.5,1758.5C 2061.5,1490.17 2061.5,1221.83 2061.5,953.5 Z M 2258.5,1108.5 C 2304.51,1108.12 2350.51,1108.62 2396.5,1110C 2424.28,1110.82 2449.95,1118.49 2473.5,1133C 2492.94,1148.73 2502.61,1169.23 2502.5,1194.5C 2500.25,1230.26 2482.58,1255.09 2449.5,1269C 2431.31,1274.92 2412.64,1278.25 2393.5,1279C 2348.51,1280.94 2303.51,1282.44 2258.5,1283.5C 2258.5,1225.17 2258.5,1166.83 2258.5,1108.5 Z M 2258.5,1416.5 C 2311.18,1416.21 2363.84,1416.71 2416.5,1418C 2447.72,1417.3 2476.38,1425.3 2502.5,1442C 2532.87,1466.79 2543.04,1498.29 2533,1536.5C 2527.57,1553.88 2517.4,1567.72 2502.5,1578C 2477.98,1595.3 2450.65,1602.97 2420.5,1601C 2366.5,1602.31 2312.5,1603.48 2258.5,1604.5C 2258.5,1541.83 2258.5,1479.17 2258.5,1416.5 Z"/></g>
<g><path style="opacity:0.993" fill="#fefffe" d="M 4232.5,953.5 C 4296.83,953.5 4361.17,953.5 4425.5,953.5C 4425.33,1130.17 4425.5,1306.83 4426,1483.5C 4426.01,1514.2 4427.01,1544.87 4429,1575.5C 4432.46,1599.62 4446.29,1612.79 4470.5,1615C 4486.16,1615.5 4501.83,1615.67 4517.5,1615.5C 4517.5,1663.17 4517.5,1710.83 4517.5,1758.5C 4474.15,1758.87 4430.82,1758.37 4387.5,1757C 4347.83,1755.78 4312.17,1743.45 4280.5,1720C 4256.74,1698.31 4242.57,1671.48 4238,1639.5C 4235.62,1614.89 4234.28,1590.23 4234,1565.5C 4232.67,1361.5 4232.17,1157.5 4232.5,953.5 Z"/></g>
<g><path style="opacity:0.994" fill="#fefffe" d="M 4641.5,1003.5 C 4706.5,1003.79 4771.5,1004.46 4836.5,1005.5C 4836.76,1053.51 4837.42,1101.51 4838.5,1149.5C 4891.17,1149.5 4943.83,1149.5 4996.5,1149.5C 4996.5,1195.5 4996.5,1241.5 4996.5,1287.5C 4943.83,1287.5 4891.17,1287.5 4838.5,1287.5C 4838.33,1370.83 4838.5,1454.17 4839,1537.5C 4838.58,1553.94 4840.91,1569.94 4846,1585.5C 4854.2,1602.2 4867.7,1611.37 4886.5,1613C 4892.8,1613.94 4899.14,1614.61 4905.5,1615C 4935.83,1615.5 4966.16,1615.67 4996.5,1615.5C 4996.5,1663.17 4996.5,1710.83 4996.5,1758.5C 4931.48,1759.08 4866.48,1758.24 4801.5,1756C 4709.62,1750.79 4657.46,1702.62 4645,1611.5C 4643.36,1583.19 4642.36,1554.86 4642,1526.5C 4641.5,1446.83 4641.33,1367.17 4641.5,1287.5C 4608.17,1287.5 4574.83,1287.5 4541.5,1287.5C 4541.5,1241.5 4541.5,1195.5 4541.5,1149.5C 4574.83,1149.5 4608.17,1149.5 4641.5,1149.5C 4641.5,1100.83 4641.5,1052.17 4641.5,1003.5 Z"/></g>
<g><path style="opacity:0.993" fill="#fefffe" d="M 3114.5,1134.5 C 3143.24,1135.67 3171.9,1137.84 3200.5,1141C 3246.86,1147.66 3288.86,1164.66 3326.5,1192C 3366.6,1226.5 3391.1,1270 3400,1322.5C 3401.75,1341.79 3402.75,1361.13 3403,1380.5C 3404.04,1444.84 3405.37,1509.17 3407,1573.5C 3407.23,1584.57 3408.23,1595.57 3410,1606.5C 3412.02,1618.44 3418.85,1625.6 3430.5,1628C 3438.49,1628.5 3446.49,1628.67 3454.5,1628.5C 3454.83,1671.84 3454.5,1715.17 3453.5,1758.5C 3444.41,1761.52 3435.07,1763.35 3425.5,1764C 3397.36,1765.5 3369.36,1764.16 3341.5,1760C 3291.54,1748.04 3260.04,1717.21 3247,1667.5C 3218.49,1718.05 3175.65,1749.55 3118.5,1762C 3065.53,1773.64 3012.53,1773.97 2959.5,1763C 2917.65,1754.17 2882.15,1734.34 2853,1703.5C 2826.52,1670.94 2815.19,1633.61 2819,1591.5C 2821.46,1539.77 2843.63,1498.93 2885.5,1469C 2906.11,1455.36 2928.11,1444.36 2951.5,1436C 2974.85,1428.24 2998.52,1421.58 3022.5,1416C 3085.39,1402.49 3148.39,1389.49 3211.5,1377C 3212.18,1342.72 3200.85,1313.05 3177.5,1288C 3160.41,1275.76 3141.24,1269.93 3120,1270.5C 3067.19,1270.04 3034.86,1295.37 3023,1346.5C 3021.6,1347.23 3020.1,1347.73 3018.5,1348C 2955.42,1347.64 2892.42,1345.14 2829.5,1340.5C 2829.94,1328.42 2832.44,1316.75 2837,1305.5C 2844.64,1284.55 2853.64,1264.21 2864,1244.5C 2887.55,1209.29 2918.72,1183.12 2957.5,1166C 2986.61,1153.14 3016.94,1144.47 3048.5,1140C 3070.58,1137.21 3092.58,1135.38 3114.5,1134.5 Z M 3202.5,1492.5 C 3207.73,1491.24 3210.56,1493.24 3211,1498.5C 3213.19,1531.09 3206.52,1561.75 3191,1590.5C 3173.79,1616.83 3149.63,1633.17 3118.5,1639.5C 3099.6,1644.12 3080.6,1644.62 3061.5,1641C 3030.38,1630.84 3016.55,1609.34 3020,1576.5C 3023.18,1561.31 3031.01,1549.14 3043.5,1540C 3053.4,1532.7 3064.4,1527.7 3076.5,1525C 3118.38,1513.2 3160.38,1502.36 3202.5,1492.5 Z"/></g>
<g><path style="opacity:0.993" fill="#fefffe" d="M 3532.5,1149.5 C 3596.83,1149.5 3661.17,1149.5 3725.5,1149.5C 3725.33,1245.83 3725.5,1342.17 3726,1438.5C 3725.79,1475.63 3727.79,1512.63 3732,1549.5C 3740.54,1600.19 3770.38,1623.02 3821.5,1618C 3847.75,1612.13 3868.25,1597.96 3883,1575.5C 3887.6,1567.04 3890.6,1558.04 3892,1548.5C 3895.03,1524.6 3896.7,1500.6 3897,1476.5C 3898.6,1367.51 3899.43,1258.51 3899.5,1149.5C 3965.17,1149.5 4030.83,1149.5 4096.5,1149.5C 4096.5,1352.5 4096.5,1555.5 4096.5,1758.5C 4036.5,1758.5 3976.5,1758.5 3916.5,1758.5C 3916.67,1726.5 3916.5,1694.5 3916,1662.5C 3884.33,1727.78 3832.17,1763.62 3759.5,1770C 3720.36,1773.69 3682.36,1768.69 3645.5,1755C 3604.09,1737.25 3574.25,1707.75 3556,1666.5C 3544.29,1640.37 3537.29,1613.04 3535,1584.5C 3533.88,1555.18 3533.21,1525.85 3533,1496.5C 3532.5,1380.83 3532.33,1265.17 3532.5,1149.5 Z"/></g>
<g><path style="opacity:0.986" fill="#fefffe" d="M 1345.5,1240.5 C 1471.21,1311.77 1596.04,1384.43 1720,1458.5C 1721.04,1460.71 1721.71,1463.05 1722,1465.5C 1722.99,1478.15 1723.65,1490.82 1724,1503.5C 1725.66,1635.5 1725.83,1767.5 1724.5,1899.5C 1598.09,1972.79 1471.92,2046.45 1346,2120.5C 1220.92,2047.71 1095.75,1975.04 970.5,1902.5C 970.167,1900.33 969.833,1898.17 969.5,1896C 970.151,1749.48 971.318,1602.98 973,1456.5C 1096.98,1384.09 1221.15,1312.09 1345.5,1240.5 Z M 1343.5,1329.5 C 1422.09,1373.13 1499.76,1418.3 1576.5,1465C 1585.85,1470.67 1594.85,1476.84 1603.5,1483.5C 1519.82,1534.35 1435.15,1583.68 1349.5,1631.5C 1330.22,1622.19 1311.22,1612.36 1292.5,1602C 1233.84,1569.01 1175.84,1535.01 1118.5,1500C 1108.97,1494.4 1099.97,1488.07 1091.5,1481C 1174.4,1428.71 1258.4,1378.21 1343.5,1329.5 Z M 1048.5,1551.5 C 1135.18,1600.59 1221.35,1650.59 1307,1701.5C 1307.86,1796.84 1307.52,1892.17 1306,1987.5C 1305.96,1993.67 1305.29,1999.67 1304,2005.5C 1218.16,1955.58 1132.16,1905.91 1046,1856.5C 1045.1,1754.81 1045.93,1653.15 1048.5,1551.5 Z M 1642.5,1551.5 C 1647.89,1652.29 1649.39,1753.29 1647,1854.5C 1560.41,1905.55 1473.58,1956.21 1386.5,2006.5C 1384.15,1908.5 1383.98,1810.5 1386,1712.5C 1386.18,1709.04 1386.85,1705.71 1388,1702.5C 1472.32,1651.26 1557.15,1600.93 1642.5,1551.5 Z"/></g>
<g><path style="opacity:0.985" fill="#fefffe" d="M 557.5,1241.5 C 561.105,1241.8 564.439,1242.97 567.5,1245C 690.827,1315.66 813.827,1386.83 936.5,1458.5C 936.833,1485.67 937.167,1512.83 937.5,1540C 937.158,1660.51 936.158,1781.01 934.5,1901.5C 809.749,1974.63 684.915,2047.63 560,2120.5C 435.085,2047.96 310.251,1975.29 185.5,1902.5C 183.811,1783.01 182.811,1663.51 182.5,1544C 182.833,1515.5 183.167,1487 183.5,1458.5C 307.902,1385.63 432.569,1313.3 557.5,1241.5 Z M 557.5,1329.5 C 645.786,1378.3 732.786,1429.14 818.5,1482C 746.158,1527.18 672.825,1570.84 598.5,1613C 586.848,1619.81 574.848,1625.98 562.5,1631.5C 550.774,1626.8 539.441,1621.3 528.5,1615C 454.844,1573.51 382.177,1530.51 310.5,1486C 308.612,1483.81 306.445,1481.98 304,1480.5C 303.333,1479.83 303.333,1479.17 304,1478.5C 388.81,1429.19 473.31,1379.52 557.5,1329.5 Z M 260.5,1550.5 C 349.225,1600.41 437.058,1651.74 524,1704.5C 523.805,1766.83 523.138,1829.16 522,1891.5C 521.151,1929.58 519.484,1967.58 517,2005.5C 448.5,1965.67 380,1925.83 311.5,1886C 296.067,1876.9 280.901,1867.4 266,1857.5C 263.242,1809.88 261.575,1762.21 261,1714.5C 259.569,1659.83 259.403,1605.16 260.5,1550.5 Z M 856.5,1551.5 C 857.5,1551.5 858.5,1551.5 859.5,1551.5C 861.451,1634.82 861.951,1718.15 861,1801.5C 860.708,1816.85 860.041,1832.18 859,1847.5C 858.654,1850.58 857.988,1853.58 857,1856.5C 771.831,1907.09 686.498,1957.42 601,2007.5C 600.333,1905.5 600.333,1803.5 601,1701.5C 686.336,1651.64 771.503,1601.64 856.5,1551.5 Z"/></g>
</svg>
